<svg width="15" height="16" viewBox="0 0 15 16" fill="none" xmlns="http://www.w3.org/2000/svg">
<path d="M14.8265 6.54488H7.67394V9.6351H11.7901C11.407 11.5988 9.8033 12.7271 7.67394 12.7271C5.1632 12.7271 3.13949 10.6174 3.13949 7.9991C3.13949 5.38169 5.1632 3.27199 7.67394 3.27199C8.75537 3.27199 9.73286 3.67226 10.4999 4.32684L12.7332 1.99955C11.3726 0.762928 9.62807 0 7.67394 0C3.41866 0 0 3.56302 0 8C0 12.437 3.4178 16 7.67394 16C11.5109 16 15 13.0907 15 8C15 7.5272 14.9304 7.01768 14.8265 6.54488Z" fill="#FECD04"/>
</svg>
